<svg width="32" height="33" viewBox="0 0 32 33" fill="none" xmlns="http://www.w3.org/2000/svg">
<g clip-path="url(#clip0_334_5357)">
<path opacity="0.2" d="M16 32.9492C24.8366 32.9492 32 25.7858 32 16.9492C32 8.11266 24.8366 0.949219 16 0.949219C7.16344 0.949219 0 8.11266 0 16.9492C0 25.7858 7.16344 32.9492 16 32.9492Z" fill="#ED785E"/>
<path d="M8.38086 24.8603C8.40143 22.8531 9.21318 20.9352 10.6397 19.5232C12.0663 18.1112 13.9924 17.3191 15.9997 17.3191C18.0069 17.3191 19.933 18.1112 21.3596 19.5232C22.7861 20.9352 23.5979 22.8531 23.6185 24.8603H8.38086Z" fill="#ED785E"/>
<path d="M20.4449 11.5259C20.4449 9.07106 18.4549 7.08105 16.0001 7.08105C13.5453 7.08105 11.5553 9.07106 11.5553 11.5259C11.5553 13.9806 13.5453 15.9707 16.0001 15.9707C18.4549 15.9707 20.4449 13.9806 20.4449 11.5259Z" fill="#ED785E"/>
</g>
<defs>
<clipPath id="clip0_334_5357">
<rect width="32" height="32" fill="white" transform="translate(0 0.949219)"/>
</clipPath>
</defs>
</svg>
