<svg width="20" height="20" viewBox="0 0 20 20" fill="none" xmlns="http://www.w3.org/2000/svg">
<path d="M0.626341 18.5756H2.5024V8.25733C2.5024 8.08465 2.6424 7.94465 2.81507 7.94465H7.19253V0.753106C7.19253 0.58043 7.33254 0.44043 7.50521 0.44043H15.6348C15.8075 0.44043 15.9475 0.58043 15.9475 0.753106V18.5756H18.7615C18.9342 18.5756 19.0742 18.7156 19.0742 18.8883C19.0742 19.061 18.9342 19.201 18.7615 19.201H0.626341C0.453667 19.201 0.313665 19.061 0.313665 18.8883C0.313665 18.7156 0.453667 18.5756 0.626341 18.5756ZM12.508 18.5756H13.7587V15.7615C13.7587 15.5889 13.6187 15.4489 13.4461 15.4489H12.8207C12.648 15.4489 12.508 15.5889 12.508 15.7615V18.5756ZM11.2573 8.25733V18.5756H11.8827V15.7615C11.8827 15.2435 12.3026 14.8235 12.8207 14.8235H13.4461C13.9641 14.8235 14.3841 15.2435 14.3841 15.7615V18.5756H15.3221V1.06578H7.81789V7.94465H10.9446C11.1173 7.94465 11.2573 8.08465 11.2573 8.25733ZM3.12775 18.5756H10.632V8.57H3.12775V18.5756Z" fill="#84829A"/>
<path d="M9.06859 4.81738H10.9446C11.1173 4.81738 11.2573 4.95738 11.2573 5.13006V7.00611C11.2573 7.17879 11.1173 7.31879 10.9446 7.31879H9.06859C8.89592 7.31879 8.75592 7.17879 8.75592 7.00611V5.13006C8.75592 4.95738 8.89592 4.81738 9.06859 4.81738ZM9.38127 6.69344H10.632V5.44273H9.38127V6.69344Z" fill="#84829A"/>
<path d="M9.06859 1.69043H10.9446C11.1173 1.69043 11.2573 1.83043 11.2573 2.00311V3.87916C11.2573 4.05184 11.1173 4.19184 10.9446 4.19184H9.06859C8.89592 4.19184 8.75592 4.05184 8.75592 3.87916V2.00311C8.75592 1.83043 8.89592 1.69043 9.06859 1.69043ZM9.38127 3.56649H10.632V2.31578H9.38127V3.56649Z" fill="#84829A"/>
<path d="M12.1955 4.81738H14.0716C14.2443 4.81738 14.3843 4.95738 14.3843 5.13006V7.00611C14.3843 7.17879 14.2443 7.31879 14.0716 7.31879H12.1955C12.0229 7.31879 11.8829 7.17879 11.8829 7.00611V5.13006C11.8829 4.95738 12.0229 4.81738 12.1955 4.81738ZM12.5082 6.69344H13.7589V5.44273H12.5082V6.69344Z" fill="#84829A"/>
<path d="M12.1955 1.69043H14.0716C14.2443 1.69043 14.3843 1.83043 14.3843 2.00311V3.87916C14.3843 4.05184 14.2443 4.19184 14.0716 4.19184H12.1955C12.0229 4.19184 11.8829 4.05184 11.8829 3.87916V2.00311C11.8829 1.83043 12.0229 1.69043 12.1955 1.69043ZM12.5082 3.56649H13.7589V2.31578H12.5082V3.56649Z" fill="#84829A"/>
<path d="M12.1955 7.94434H14.0716C14.2443 7.94434 14.3843 8.08434 14.3843 8.25701V10.1331C14.3843 10.3057 14.2443 10.4457 14.0716 10.4457H12.1955C12.0229 10.4457 11.8829 10.3057 11.8829 10.1331V8.25701C11.8829 8.08434 12.0229 7.94434 12.1955 7.94434ZM12.5082 9.82039H13.7589V8.56969H12.5082V9.82039Z" fill="#84829A"/>
<path d="M12.1955 11.0703H14.0716C14.2443 11.0703 14.3843 11.2103 14.3843 11.383V13.259C14.3843 13.4317 14.2443 13.5717 14.0716 13.5717H12.1955C12.0229 13.5717 11.8829 13.4317 11.8829 13.259V11.383C11.8829 11.2103 12.0229 11.0703 12.1955 11.0703ZM12.5082 12.9464H13.7589V11.6957H12.5082V12.9464Z" fill="#84829A"/>
<path d="M6.25471 14.8227H4.37865C4.20598 14.8227 4.06598 14.6827 4.06598 14.51V12.634C4.06598 12.4613 4.20598 12.3213 4.37865 12.3213H6.25471C6.42738 12.3213 6.56738 12.4613 6.56738 12.634V14.51C6.56738 14.6827 6.42738 14.8227 6.25471 14.8227ZM5.94203 12.9466H4.69133V14.1973H5.94203V12.9466Z" fill="#84829A"/>
<path d="M6.25471 11.6957H4.37865C4.20598 11.6957 4.06598 11.5557 4.06598 11.3831V9.50701C4.06598 9.33434 4.20598 9.19434 4.37865 9.19434H6.25471C6.42738 9.19434 6.56738 9.33434 6.56738 9.50701V11.3831C6.56738 11.5557 6.42738 11.6957 6.25471 11.6957ZM5.94203 9.81969H4.69133V11.0704H5.94203V9.81969Z" fill="#84829A"/>
<path d="M6.25471 17.9506H4.37865C4.20598 17.9506 4.06598 17.8106 4.06598 17.6379V15.7619C4.06598 15.5892 4.20598 15.4492 4.37865 15.4492H6.25471C6.42738 15.4492 6.56738 15.5892 6.56738 15.7619V17.6379C6.56738 17.8106 6.42738 17.9506 6.25471 17.9506ZM5.94203 16.0746H4.69133V17.3253H5.94203V16.0746Z" fill="#84829A"/>
<path d="M9.38117 14.8227H7.50512C7.33244 14.8227 7.19244 14.6827 7.19244 14.51V12.634C7.19244 12.4613 7.33244 12.3213 7.50512 12.3213H9.38117C9.55385 12.3213 9.69385 12.4613 9.69385 12.634V14.51C9.69385 14.6827 9.55385 14.8227 9.38117 14.8227ZM9.0685 12.9466H7.81779V14.1973H9.0685V12.9466Z" fill="#84829A"/>
<path d="M9.38117 11.6957H7.50512C7.33244 11.6957 7.19244 11.5557 7.19244 11.3831V9.50701C7.19244 9.33434 7.33244 9.19434 7.50512 9.19434H9.38117C9.55385 9.19434 9.69385 9.33434 9.69385 9.50701V11.3831C9.69385 11.5557 9.55385 11.6957 9.38117 11.6957ZM9.0685 9.81969H7.81779V11.0704H9.0685V9.81969Z" fill="#84829A"/>
<path d="M9.38117 17.9506H7.50512C7.33244 17.9506 7.19244 17.8106 7.19244 17.638V15.7619C7.19244 15.5892 7.33244 15.4492 7.50512 15.4492H9.38117C9.55385 15.4492 9.69385 15.5892 9.69385 15.7619V17.638C9.69385 17.8106 9.55385 17.9506 9.38117 17.9506ZM9.0685 16.0746H7.81779V17.3253H9.0685V16.0746Z" fill="#84829A"/>
</svg>
