<svg width="24" height="23" viewBox="0 0 24 23" fill="none" xmlns="http://www.w3.org/2000/svg">
<path d="M21.6067 2.49086C20.3937 1.18709 18.694 0.445269 16.9133 0.442519C15.1311 0.444582 13.4297 1.18601 12.2148 2.49002L11.8008 2.92753L11.3868 2.49002C8.97621 -0.104396 4.91881 -0.253389 2.32444 2.15717C2.20948 2.26403 2.09845 2.37501 1.99159 2.49002C-0.565556 5.24822 -0.565556 9.51088 1.99159 12.2691L11.1923 21.9719C11.5107 22.3079 12.0411 22.3223 12.3772 22.004C12.3882 21.9936 12.3989 21.9829 12.4093 21.9719L21.6067 12.2691C24.1637 9.51118 24.1637 5.24876 21.6067 2.49086ZM20.3939 11.115H20.3931L11.8008 20.1775L3.2077 11.115C1.25419 9.00748 1.25419 5.75079 3.2077 3.64327C4.98172 1.7205 7.97863 1.59994 9.9014 3.37397C9.99475 3.4601 10.0846 3.54992 10.1707 3.64327L11.1923 4.72109C11.529 5.05562 12.0726 5.05562 12.4093 4.72109L13.4309 3.64411C15.205 1.72134 18.2019 1.60078 20.1246 3.3748C20.218 3.46094 20.3078 3.55076 20.3939 3.64411C22.3644 5.75496 22.3789 9.01759 20.3939 11.115Z" fill="#42A8C3"/>
</svg>
