<svg width="44" height="43" viewBox="0 0 44 43" fill="none" xmlns="http://www.w3.org/2000/svg">
<ellipse cx="21.9367" cy="21.3312" rx="21.1056" ry="21.1056" fill="#F5F5F5"/>
<g clip-path="url(#clip0_334_1575)">
<path d="M29.7394 14.4727C29.3068 14.3462 18.727 13.2928 15.0114 18.3126C13.3658 20.5364 13.3411 23.5848 14.929 27.3726C14.5262 28.2086 14.1736 29.0893 13.8862 30.0185C13.7988 30.3009 13.9569 30.6003 14.2389 30.6873C14.2915 30.7037 14.3447 30.7113 14.3973 30.7113C14.6253 30.7113 14.837 30.5641 14.9077 30.3347C17.7396 21.179 26.9428 16.7496 29.765 15.6306C30.0396 15.5217 30.4067 14.6681 29.7394 14.4727Z" fill="#84829A"/>
<path d="M16.6274 28.5184C18.1592 29.161 19.6908 29.4903 21.1151 29.4903C22.3953 29.4903 23.5891 29.2271 24.6179 28.6934C26.6884 27.6193 27.9537 25.5648 28.2767 22.7513C28.6059 19.884 29.0157 18.088 29.3576 16.9893C26.3145 18.393 19.7896 22.0315 16.6274 28.5184Z" fill="#84829A"/>
</g>
<defs>
<clipPath id="clip0_334_1575">
<rect width="16.4155" height="16.4155" fill="white" transform="translate(13.729 14.2959)"/>
</clipPath>
</defs>
</svg>
