<svg width="43" height="43" viewBox="0 0 43 43" fill="none" xmlns="http://www.w3.org/2000/svg">
<circle cx="21.7077" cy="21.3312" r="21.1056" fill="#F5F5F5"/>
<path d="M27.973 15.753L20.5655 23.1879C20.4806 23.1387 20.3913 23.0975 20.2988 23.0647L15.4083 21.4095C15.2604 21.3725 15.1292 21.287 15.0354 21.1668C14.9416 21.0466 14.8906 20.8985 14.8906 20.7461C14.8906 20.5936 14.9416 20.4455 15.0354 20.3253C15.1292 20.2051 15.2604 20.1197 15.4083 20.0826L27.5421 15.7667C27.6214 15.7398 27.7046 15.7259 27.7884 15.7257C27.851 15.7247 27.9134 15.7339 27.973 15.753Z" fill="#84829A"/>
<path d="M28.4446 16.6692L24.1287 28.8166C24.0811 28.9582 23.9885 29.0803 23.865 29.1643C23.7415 29.2483 23.5939 29.2895 23.4447 29.2818C23.2939 29.2887 23.1449 29.2454 23.0212 29.1588C22.8975 29.0722 22.8059 28.9471 22.7608 28.803L21.1329 23.9125C21.1002 23.82 21.059 23.7307 21.0098 23.6458L28.4583 16.2383C28.5003 16.3796 28.4955 16.5308 28.4446 16.6692Z" fill="#84829A"/>
</svg>
