<svg width="43" height="43" viewBox="0 0 43 43" fill="none" xmlns="http://www.w3.org/2000/svg">
<ellipse cx="21.2536" cy="21.3312" rx="21.1056" ry="21.1056" fill="#F5F5F5"/>
<g clip-path="url(#clip0_334_1589)">
<path d="M27.7037 13.123C27.6127 13.123 27.5229 13.1442 27.4414 13.1849L22.9988 15.4068L17.9751 13.1737C17.9669 13.1702 17.9575 13.1696 17.9487 13.1661C17.9261 13.1577 17.903 13.1506 17.8796 13.145C17.8562 13.1387 17.8325 13.1338 17.8086 13.1304C17.761 13.1264 17.7132 13.1264 17.6656 13.1304C17.6417 13.1338 17.618 13.1387 17.5946 13.145C17.5712 13.1506 17.5481 13.1577 17.5255 13.1661C17.5167 13.1696 17.5073 13.1702 17.4991 13.1737L12.2228 15.5188C12.011 15.6128 11.8745 15.8229 11.8745 16.0546V28.9523C11.8746 29.1506 11.975 29.3355 12.1412 29.4436C12.3076 29.5519 12.5174 29.5686 12.6988 29.4881L17.7371 27.2486L22.7754 29.4881C22.7842 29.4916 22.7935 29.4881 22.8023 29.4934C22.9443 29.5569 23.1072 29.5533 23.2461 29.4835C23.2555 29.4794 23.266 29.4835 23.2754 29.477L27.9655 27.132C28.1642 27.0327 28.2898 26.8295 28.2897 26.6072V13.7096C28.2899 13.3858 28.0275 13.1232 27.7037 13.123ZM17.1508 26.2262L13.047 28.05V16.4357L17.1508 14.6118V26.2262ZM22.4272 28.05L18.3233 26.2262V14.6118L22.4272 16.4357V28.05ZM27.1172 26.2449L23.5997 28.0037V16.4169L27.1172 14.6581V26.2449Z" fill="#84829A"/>
</g>
<defs>
<clipPath id="clip0_334_1589">
<rect width="16.4155" height="16.4155" fill="white" transform="translate(11.8735 13.123)"/>
</clipPath>
</defs>
</svg>
