<svg width="143" height="143" viewBox="0 0 143 143" fill="none" xmlns="http://www.w3.org/2000/svg">
<g filter="url(#filter0_d_334_3497)">
<circle cx="71.7295" cy="63" r="38.7295" fill="white"/>
</g>
<g clip-path="url(#clip0_334_3497)">
<path d="M71.0119 95.9921C88.8367 95.9921 103.286 81.5422 103.286 63.7175C103.286 45.8927 88.8367 31.4429 71.0119 31.4429C53.1871 31.4429 38.7373 45.8927 38.7373 63.7175C38.7373 81.5422 53.1871 95.9921 71.0119 95.9921Z" fill="#F0F0F0"/>
<path d="M38.7373 63.7177C38.7373 77.5948 47.4958 89.4247 59.786 93.985V33.4507C47.4958 38.0107 38.7373 49.8409 38.7373 63.7177Z" fill="#6DA544"/>
<path d="M103.286 63.7177C103.286 49.8409 94.5275 38.0107 82.2373 33.4507V93.9851C94.5275 89.4247 103.286 77.5948 103.286 63.7177Z" fill="#6DA544"/>
</g>
<defs>
<filter id="filter0_d_334_3497" x="0.72541" y="0.0645657" width="142.008" height="142.008" filterUnits="userSpaceOnUse" color-interpolation-filters="sRGB">
<feFlood flood-opacity="0" result="BackgroundImageFix"/>
<feColorMatrix in="SourceAlpha" type="matrix" values="0 0 0 0 0 0 0 0 0 0 0 0 0 0 0 0 0 0 127 0" result="hardAlpha"/>
<feOffset dy="8.06865"/>
<feGaussianBlur stdDeviation="16.1373"/>
<feComposite in2="hardAlpha" operator="out"/>
<feColorMatrix type="matrix" values="0 0 0 0 0 0 0 0 0 0 0 0 0 0 0 0 0 0 0.05 0"/>
<feBlend mode="normal" in2="BackgroundImageFix" result="effect1_dropShadow_334_3497"/>
<feBlend mode="normal" in="SourceGraphic" in2="effect1_dropShadow_334_3497" result="shape"/>
</filter>
<clipPath id="clip0_334_3497">
<rect width="64.5492" height="64.5492" fill="white" transform="translate(38.7373 31.4429)"/>
</clipPath>
</defs>
</svg>
